<svg width="269" height="269" viewBox="0 0 269 269" fill="none" xmlns="http://www.w3.org/2000/svg">
<rect width="269" height="269" rx="35" fill="#0C141D"/>
<mask id="mask0_35_42" style="mask-type:alpha" maskUnits="userSpaceOnUse" x="0" y="0" width="269" height="269">
<rect width="269" height="269" rx="35" fill="#0C141D"/>
</mask>
<g mask="url(#mask0_35_42)">
<path d="M137.141 63.3H-24.5743C-63.9752 63.3 -95.8386 95.3347 -95.8386 134.736C-95.8386 174.137 -63.9752 206 -24.5743 206H137.141C176.542 206 208.405 174.137 208.405 134.736C208.405 95.3347 176.542 63.3 137.141 63.3Z" fill="#90EAFD"/>
<path d="M293.374 63.3C253.973 63.3 222.11 95.1634 222.11 134.564C222.11 173.965 253.973 205.829 293.374 205.829C332.775 205.829 364.639 173.965 364.639 134.564C364.639 95.1634 332.775 63.3 293.374 63.3Z" fill="white"/>
<path d="M180.664 157.878C193.485 132.237 183.092 101.058 157.451 88.2379C131.81 75.4175 100.631 85.8105 87.8111 111.451C74.9908 137.092 85.3838 168.271 111.024 181.091C136.665 193.911 167.844 183.518 180.664 157.878Z" fill="#0C141D"/>
</g>
</svg>
