<svg width="269" height="84" viewBox="0 0 269 84" fill="none" xmlns="http://www.w3.org/2000/svg">
<path d="M136 0H41.6C18.6 0 0 18.7 0 41.7C0 64.7 18.6 83.3 41.6 83.3H136C159 83.3 177.6 64.7 177.6 41.7C177.6 18.7 159 0 136 0Z" fill="#90EAFD"/>
<path d="M227.2 0C204.2 0 185.6 18.6 185.6 41.6C185.6 64.6 204.2 83.2 227.2 83.2C250.2 83.2 268.8 64.6 268.8 41.6C268.8 18.6 250.2 0 227.2 0Z" fill="white"/>
<path d="M161.406 55.209C168.89 40.2414 162.823 22.041 147.856 14.5573C132.888 7.07351 114.688 13.1403 107.204 28.1079C99.7204 43.0754 105.787 61.2758 120.755 68.7596C135.722 76.2434 153.923 70.1765 161.406 55.209Z" fill="#0C141D"/>
</svg>
